<svg width="143" height="143" viewBox="0 0 143 143" fill="none" xmlns="http://www.w3.org/2000/svg">
<g clip-path="url(#clip0_1313_773)">
<path d="M71.5 142.942C110.988 142.942 143 110.944 143 71.4712C143 31.9988 110.988 0 71.5 0C32.0116 0 0 31.9988 0 71.4712C0 110.944 32.0116 142.942 71.5 142.942Z" fill="#3BAB49"/>
<path d="M42.0942 8.45565V0.0861816H100.877V8.45565H100.905C95.5537 8.42689 90.2308 8.42689 84.8791 8.42689C70.6078 8.42689 56.3366 8.42689 42.0366 8.42689L42.0942 8.45565Z" fill="black"/>
<path d="M8.37284 100.923H0V42.1638H8.37284C8.37284 42.5377 8.37284 42.9404 8.37284 43.343C8.37284 62.5554 8.37284 81.7678 8.37284 100.98H8.40161L8.37284 100.923Z" fill="black"/>
<path d="M134.598 42.1638H142.971V100.923H134.598H134.627V42.135H134.598V42.1638Z" fill="black"/>
<path d="M100.877 134.631V143H42.0942V134.631L42.0654 134.659H100.905H100.877V134.631Z" fill="black"/>
<path d="M25.2334 16.8828V8.45581C30.9016 8.45581 36.4835 8.45581 42.0942 8.45581V16.8828H25.2334Z" fill="black"/>
<path d="M100.877 8.45576H117.738V16.8828H117.766C112.185 16.854 106.631 16.854 100.906 16.854V8.427H100.877V8.45576Z" fill="black"/>
<path d="M8.37305 42.1638C8.37305 36.6992 8.37305 31.2058 8.37305 25.7412C8.37305 25.6262 8.40182 25.5111 8.43059 25.3098H16.8034V42.135H8.37305V42.1638Z" fill="black"/>
<path d="M126.168 25.3098H134.598V42.1637L134.627 42.135H126.197V25.281H126.168V25.3098Z" fill="black"/>
<path d="M16.8034 117.777H8.37301C8.37301 112.139 8.37301 106.531 8.37301 100.923L8.34424 100.951H16.7746V117.805H16.8034V117.777Z" fill="black"/>
<path d="M134.598 100.923C134.598 106.445 134.598 111.938 134.598 117.46C134.598 117.547 134.541 117.633 134.512 117.777H126.139H126.168V100.951H134.598L134.57 100.923H134.598Z" fill="black"/>
<path d="M42.0941 134.631C36.6273 134.631 31.1318 134.631 25.665 134.631C25.5499 134.631 25.4348 134.602 25.2334 134.544V126.175H25.2046C30.7865 126.204 36.3396 126.204 42.0654 126.204V134.631H42.0941Z" fill="black"/>
<path d="M117.738 126.204V134.631H100.877L100.906 134.659V126.232H117.766H117.738V126.204Z" fill="black"/>
<path d="M16.8032 25.3098V16.8828C19.6517 16.8828 22.4427 16.8828 25.2336 16.8828V25.3098H16.8032Z" fill="black"/>
<path d="M117.738 16.8828H126.168V25.3098H126.197C123.435 25.281 120.673 25.281 117.767 25.281V16.854H117.738V16.8828Z" fill="black"/>
<path d="M25.2336 126.204H16.8032C16.8032 123.356 16.8032 120.566 16.8032 117.777L16.7744 117.805H25.2048V126.232H25.2336V126.204Z" fill="black"/>
<path d="M126.168 117.777C126.168 120.394 126.168 123.011 126.226 125.628C126.226 126.089 126.053 126.261 125.593 126.261C122.974 126.261 120.356 126.232 117.738 126.204H117.767V117.805H126.197H126.168V117.777Z" fill="black"/>
<path d="M86.922 75.4689C87.3248 75.5264 87.6988 75.6127 88.1017 75.6127C90.5186 75.6127 92.9067 75.6127 95.4099 75.6127V100.807H87.1522C87.1522 101.239 87.0946 101.555 87.0946 101.872C87.0946 104.029 87.0658 106.214 87.0946 108.372C87.0946 109.119 86.8644 109.292 86.1451 109.292C81.1962 109.292 76.2473 109.292 71.2984 109.263C70.4065 109.263 70.1763 109.522 70.2051 110.414C70.2626 112.801 70.2051 115.159 70.2051 117.633H61.861C61.861 117.316 61.8035 117 61.8035 116.684C61.8035 114.555 61.7747 112.398 61.8035 110.27C61.8035 109.522 61.6021 109.263 60.8252 109.292C55.9338 109.321 51.0425 109.292 46.1799 109.292C44.9139 109.292 44.9139 109.292 44.9139 108.055C44.9139 106.013 44.9139 103.971 44.9139 101.929C44.9139 101.613 44.9139 101.268 44.9139 100.865H36.5986V92.4379C37.9797 92.4379 39.3033 92.4379 40.6268 92.4379C41.7777 92.4379 42.9574 92.4667 44.1083 92.4379C44.7701 92.4379 44.9427 92.668 44.9427 93.272C44.9139 95.4003 44.9427 97.5574 44.9427 99.6857C44.9427 100.031 44.9427 100.347 44.9427 100.779H61.7459C61.7459 100.462 61.7747 100.146 61.7747 99.8583C61.7747 92.1503 61.7747 84.4136 61.7747 76.7056C61.7747 75.8716 61.5733 75.6127 60.7101 75.6415C55.8475 75.6702 51.0137 75.6415 46.1511 75.6415H44.9715V67.3008C45.3455 67.272 45.6908 67.2145 46.0648 67.2145C50.9562 67.2145 55.8188 67.2145 60.7101 67.2145C61.5157 67.2145 61.8035 67.0419 61.8035 66.1503C61.7747 58.4136 61.8035 50.6481 61.8035 42.9114C61.8035 42.6238 61.8035 42.3362 61.7459 41.991H44.9715H45.0002C45.0002 39.4025 45.0002 36.7853 44.9427 34.168C44.9427 33.5065 45.3455 33.5353 45.8059 33.5353C49.6902 33.5353 53.5745 33.5353 57.43 33.5353C58.6097 33.5353 59.8182 33.5353 60.9978 33.5353C61.6021 33.5353 61.8035 33.334 61.7747 32.73C61.7747 30.3428 61.7747 27.9556 61.7747 25.5972C61.7747 25.4822 61.8035 25.3671 61.8322 25.1946H70.1475C70.1475 25.511 70.2051 25.8273 70.2051 26.1725C70.2051 28.3008 70.2338 30.4579 70.2051 32.5862C70.2051 33.3627 70.4352 33.564 71.1833 33.564C76.1035 33.5353 81.0236 33.564 85.9437 33.5353C86.8357 33.5353 87.0946 33.7941 87.0658 34.657C87.0083 36.7278 87.0658 38.7986 87.0658 40.8694C87.0658 41.1857 87.0658 41.5309 87.0658 41.9623H95.4099V50.3893C94.6906 50.3893 94 50.3893 93.3095 50.3893C91.5831 50.3893 89.828 50.3605 88.1017 50.3893C87.3248 50.3893 87.0371 50.2167 87.0658 49.3826C87.1234 47.2831 87.0658 45.1835 87.0658 43.0552C87.0658 42.7388 87.0658 42.3937 87.0658 42.0198H70.3489V67.1857H87.0083C87.0371 67.5884 87.0658 67.876 87.0658 68.1636C87.0658 70.3207 87.0658 72.5065 87.0658 74.6636C87.0658 74.9225 86.9795 75.1813 86.9507 75.4689C86.6342 75.5264 86.3177 75.6127 86.0012 75.6127C81.1099 75.6127 76.2185 75.6127 71.356 75.6127C70.5216 75.6127 70.2626 75.8428 70.2626 76.6769C70.2914 84.3561 70.2626 92.064 70.2626 99.7432C70.2626 100.06 70.2626 100.405 70.2626 100.779H87.0083C87.0083 100.491 87.0658 100.29 87.0658 100.088C87.0658 92.1791 87.0658 84.2698 87.0658 76.3605C87.0658 76.0729 86.9795 75.7565 86.9507 75.4689H86.922Z" fill="#F6EB16"/>
<path d="M90.461 75.5841C90.8639 75.6417 91.2379 75.728 91.6407 75.728C94.0576 75.728 96.4457 75.728 98.949 75.728V100.923H90.6912C90.6912 101.354 90.6337 101.67 90.6337 101.987C90.6337 104.144 90.6049 106.33 90.6337 108.487C90.6337 109.235 90.4035 109.407 89.6842 109.407C84.7353 109.407 79.7864 109.407 74.8375 109.378C73.9455 109.378 73.7154 109.637 73.7441 110.529C73.8017 112.916 73.7441 115.274 73.7441 117.748H65.4001C65.4001 117.431 65.3425 117.115 65.3425 116.799C65.3425 114.67 65.3137 112.513 65.3425 110.385C65.3425 109.637 65.1411 109.378 64.3643 109.407C59.4729 109.436 54.5816 109.407 49.719 109.407C48.453 109.407 48.453 109.407 48.453 108.17C48.453 106.128 48.453 104.086 48.453 102.044C48.453 101.728 48.453 101.383 48.453 100.98H40.1377V92.5532C41.5188 92.5532 42.8423 92.5532 44.1659 92.5532C45.3168 92.5532 46.4964 92.5819 47.6474 92.5532C48.3091 92.5532 48.4818 92.7833 48.4818 93.3873C48.453 95.5156 48.4818 97.6726 48.4818 99.801C48.4818 100.146 48.4818 100.462 48.4818 100.894H65.285C65.285 100.578 65.3138 100.261 65.3138 99.9735C65.3138 92.2656 65.3138 84.5288 65.3138 76.8209C65.3138 75.9868 65.1123 75.728 64.2492 75.7567C59.3866 75.7855 54.5528 75.7567 49.6902 75.7567H48.5105V67.416C48.8846 67.3872 49.2298 67.3297 49.6039 67.3297C54.4952 67.3297 59.3578 67.3297 64.2492 67.3297C65.0548 67.3297 65.3425 67.1572 65.3425 66.2656C65.3137 58.5288 65.3425 50.7634 65.3425 43.0266C65.3425 42.739 65.3425 42.4514 65.285 42.1063H48.5105H48.5393C48.5393 39.5178 48.5393 36.9005 48.4818 34.2833C48.4818 33.6218 48.8846 33.6505 49.3449 33.6505C53.2292 33.6505 57.1136 33.6505 60.9691 33.6505C62.1488 33.6505 63.3572 33.6505 64.5369 33.6505C65.1411 33.6505 65.3425 33.4492 65.3138 32.8452C65.3138 30.458 65.3138 28.0709 65.3138 25.7125C65.3138 25.5974 65.3425 25.4824 65.3713 25.3098H73.6866C73.6866 25.6262 73.7441 25.9426 73.7441 26.2877C73.7441 28.416 73.7729 30.5731 73.7441 32.7014C73.7441 33.478 73.9743 33.6793 74.7224 33.6793C79.6425 33.6505 84.5626 33.6793 89.4828 33.6505C90.3747 33.6505 90.6337 33.9094 90.6049 34.7722C90.5474 36.843 90.6049 38.9138 90.6049 40.9846C90.6049 41.301 90.6049 41.6461 90.6049 42.0775H98.949V50.5045C98.2296 50.5045 97.5391 50.5045 96.8486 50.5045C95.1222 50.5045 93.3671 50.4757 91.6407 50.5045C90.8639 50.5045 90.5761 50.3319 90.6049 49.4979C90.6624 47.3983 90.6049 45.2988 90.6049 43.1704C90.6049 42.8541 90.6049 42.5089 90.6049 42.135H73.888V67.301H90.5474C90.5761 67.7036 90.6049 67.9912 90.6049 68.2788C90.6049 70.4359 90.6049 72.6218 90.6049 74.7788C90.6049 75.0377 90.5186 75.2965 90.4898 75.5841C90.1733 75.6417 89.8568 75.728 89.5403 75.728C84.649 75.728 79.7576 75.728 74.895 75.728C74.0606 75.728 73.8017 75.958 73.8017 76.7921C73.8305 84.4713 73.8017 92.1793 73.8017 99.8585C73.8017 100.175 73.8017 100.52 73.8017 100.894H90.5474C90.5474 100.606 90.6049 100.405 90.6049 100.204C90.6049 92.2943 90.6049 84.385 90.6049 76.4757C90.6049 76.1881 90.5186 75.8718 90.4898 75.5841H90.461Z" fill="black"/>
<path d="M50.5247 67.416H42.123V42.1638C44.9428 42.1638 47.7337 42.1638 50.5247 42.1638L50.4959 42.135C50.4959 42.6527 50.4383 43.1704 50.4383 43.6881C50.4383 50.3894 50.4383 57.0908 50.4383 63.7921C50.4383 65.0001 50.4383 66.2368 50.4959 67.4447L50.5247 67.416Z" fill="black"/>
</g>
<defs>
<clipPath id="clip0_1313_773">
<rect width="143" height="143" fill="white"/>
</clipPath>
</defs>
</svg>
